<?xml version="1.0" encoding="UTF-8" standalone="no"?>
<svg
   height="24"
   viewBox="0 0 24 24"
   width="24"
   version="1.1"
   id="svg6"
   sodipodi:docname="HardwareNicPF.svg"
   inkscape:version="1.1.1 (3bf5ae0d25, 2021-09-20)"
   xmlns:inkscape="http://www.inkscape.org/namespaces/inkscape"
   xmlns:sodipodi="http://sodipodi.sourceforge.net/DTD/sodipodi-0.dtd"
   xmlns="http://www.w3.org/2000/svg"
   xmlns:svg="http://www.w3.org/2000/svg"
   xmlns:rdf="http://www.w3.org/1999/02/22-rdf-syntax-ns#"
   xmlns:cc="http://creativecommons.org/ns#"
   xmlns:dc="http://purl.org/dc/elements/1.1/">
  <metadata
     id="metadata12">
    <rdf:RDF>
      <cc:Work
         rdf:about="">
        <dc:format>image/svg+xml</dc:format>
        <dc:type
           rdf:resource="http://purl.org/dc/dcmitype/StillImage" />
      </cc:Work>
    </rdf:RDF>
  </metadata>
  <defs
     id="defs10" />
  <sodipodi:namedview
     pagecolor="#ffffff"
     bordercolor="#666666"
     borderopacity="1"
     objecttolerance="10"
     gridtolerance="10"
     guidetolerance="10"
     inkscape:pageopacity="0"
     inkscape:pageshadow="2"
     inkscape:window-width="1591"
     inkscape:window-height="1361"
     id="namedview8"
     showgrid="true"
     inkscape:pagecheckerboard="false"
     showguides="true"
     inkscape:zoom="27.812867"
     inkscape:cx="11.361648"
     inkscape:cy="11.595353"
     inkscape:window-x="0"
     inkscape:window-y="0"
     inkscape:window-maximized="0"
     inkscape:current-layer="svg6"
     inkscape:snap-bbox="true"
     inkscape:document-rotation="0">
    <inkscape:grid
       type="xygrid"
       id="grid4526" />
  </sodipodi:namedview>
  <path
     id="path46"
     style="fill:#000000;stroke:none"
     d="M 7 4.5 C 6.446 4.5 6 4.946 6 5.5 L 6 7.5 L 4 7.5 L 4 9.5 L 3 9.5 C 2.446 9.5 2 9.946 2 10.5 C 2 11.054 2.446 11.5 3 11.5 L 4 11.5 L 4 13.5 L 6 13.5 L 6 15.5 C 6 16.054 6.446 16.5 7 16.5 L 11 16.5 L 11 18.5 C 11 19.054 11.446 19.5 12 19.5 L 19 19.5 C 19.554 19.5 20 19.054 20 18.5 L 20 16.5 L 21 16.5 C 21.554 16.5 22 16.054 22 15.5 L 22 5.5 C 22 4.946 21.554 4.5 21 4.5 L 7 4.5 z M 8 6.5 L 20 6.5 L 20 14.5 L 19 14.5 C 18.5845 14.5 18.229531 14.750219 18.078125 15.109375 C 18.027656 15.229094 18 15.3615 18 15.5 L 18 17.5 L 17 17.5 L 17 16 C 17 15.723 16.777 15.5 16.5 15.5 C 16.223 15.5 16 15.723 16 16 L 16 17.5 L 15 17.5 L 15 16 C 15 15.723 14.777 15.5 14.5 15.5 C 14.223 15.5 14 15.723 14 16 L 14 17.5 L 13 17.5 L 13 15.5 C 13 14.946 12.554 14.5 12 14.5 L 8 14.5 L 8 13.5 L 10 13.5 L 10 7.5 L 8 7.5 L 8 6.5 z M 13 8 L 13 13 L 14 13 L 14 12 L 15 12 C 16.104569 12 17 11.104569 17 10 C 17 8.895431 16.104569 8 15 8 L 13 8 z M 14 9 L 15 9 C 15.552285 9 16 9.447715 16 10 C 16 10.552285 15.552285 11 15 11 L 14 11 L 14 9 z M 7 9.5 L 8 9.5 L 9 9.5 L 9 11.5 L 8 11.5 L 7 11.5 L 7 9.5 z " />
</svg>
