<?xml version="1.0" encoding="UTF-8" standalone="no"?>
<svg
   xmlns:dc="http://purl.org/dc/elements/1.1/"
   xmlns:cc="http://creativecommons.org/ns#"
   xmlns:rdf="http://www.w3.org/1999/02/22-rdf-syntax-ns#"
   xmlns:svg="http://www.w3.org/2000/svg"
   xmlns="http://www.w3.org/2000/svg"
   xmlns:sodipodi="http://sodipodi.sourceforge.net/DTD/sodipodi-0.dtd"
   xmlns:inkscape="http://www.inkscape.org/namespaces/inkscape"
   height="24"
   viewBox="0 0 24 24"
   width="24"
   version="1.1"
   id="svg6"
   sodipodi:docname="Macvlan.svg"
   inkscape:version="0.92.5 (2060ec1f9f, 2020-04-08)">
  <metadata
     id="metadata12">
    <rdf:RDF>
      <cc:Work
         rdf:about="">
        <dc:format>image/svg+xml</dc:format>
        <dc:type
           rdf:resource="http://purl.org/dc/dcmitype/StillImage" />
        <dc:title />
      </cc:Work>
    </rdf:RDF>
  </metadata>
  <defs
     id="defs10" />
  <sodipodi:namedview
     pagecolor="#ffffff"
     bordercolor="#666666"
     borderopacity="1"
     objecttolerance="10"
     gridtolerance="10"
     guidetolerance="10"
     inkscape:pageopacity="0"
     inkscape:pageshadow="2"
     inkscape:window-width="2560"
     inkscape:window-height="1351"
     id="namedview8"
     showgrid="true"
     inkscape:pagecheckerboard="false"
     showguides="true"
     inkscape:zoom="78.666667"
     inkscape:cx="10.365624"
     inkscape:cy="11.416581"
     inkscape:window-x="0"
     inkscape:window-y="0"
     inkscape:window-maximized="1"
     inkscape:current-layer="svg6"
     inkscape:snap-bbox="true"
     inkscape:document-rotation="0">
    <inkscape:grid
       type="xygrid"
       id="grid4526" />
  </sodipodi:namedview>
  <path
     style="color:#000000;overflow:visible;opacity:1;vector-effect:none;fill:#000000;fill-opacity:1;stroke:none;stroke-width:2;stroke-linecap:butt;stroke-linejoin:miter;stroke-miterlimit:4;stroke-dasharray:none;stroke-dashoffset:0;stroke-opacity:0.82100202"
     d="M 7 4.5 C 6.446 4.5 6 4.946 6 5.5 L 6 7.5 L 4 7.5 L 4 9.5 L 3 9.5 C 2.446 9.5 2 9.946 2 10.5 C 2 11.054 2.446 11.5 3 11.5 L 4 11.5 L 4 13.5 L 6 13.5 L 6 15.5 C 6 16.054 6.446 16.5 7 16.5 L 9 16.5 L 9 14.5 L 8 14.5 L 8 13.5 L 10 13.5 L 10 7.5 L 8 7.5 L 8 6.5 L 9 6.5 L 9 4.5 L 7 4.5 z M 11 4.5 L 11 6.5 L 13 6.5 L 13 4.5 L 11 4.5 z M 15 4.5 L 15 6.5 L 17 6.5 L 17 4.5 L 15 4.5 z M 19 4.5 L 19 6.5 L 20 6.5 L 20 8 L 22 8 L 22 5.5 C 22 4.946 21.554 4.5 21 4.5 L 19 4.5 z M 7 9.5 L 8 9.5 L 9 9.5 L 9 11.5 L 8 11.5 L 7 11.5 L 7 9.5 z M 20 10 L 20 12 L 22 12 L 22 10 L 20 10 z M 20 14 L 20 14.5 L 19 14.5 C 18.5845 14.5 18.229531 14.750219 18.078125 15.109375 C 18.027656 15.229094 18 15.3615 18 15.5 L 18 16.5 L 20 16.5 L 20.339844 16.5 L 21 16.5 C 21.554 16.5 22 16.054 22 15.5 L 22 14 L 20 14 z M 11 14.5 L 11 16.5 L 13 16.5 L 13 15.5 C 13 14.946 12.554 14.5 12 14.5 L 11 14.5 z M 11 17.5 L 11 18.5 C 11 19.054 11.446 19.5 12 19.5 L 13 19.5 L 13 17.5 L 11 17.5 z M 15 17.5 L 15 19.5 L 16 19.5 L 16 17.5 L 15 17.5 z M 18 17.5 L 18 19.5 L 19 19.5 C 19.554 19.5 20 19.054 20 18.5 L 20 17.5 L 18 17.5 z "
     id="rect950" />
</svg>
