<?xml version="1.0" encoding="UTF-8" standalone="no"?>
<!-- Created with Inkscape (http://www.inkscape.org/) -->

<svg
   xmlns:dc="http://purl.org/dc/elements/1.1/"
   xmlns:cc="http://creativecommons.org/ns#"
   xmlns:rdf="http://www.w3.org/1999/02/22-rdf-syntax-ns#"
   xmlns:svg="http://www.w3.org/2000/svg"
   xmlns="http://www.w3.org/2000/svg"
   xmlns:sodipodi="http://sodipodi.sourceforge.net/DTD/sodipodi-0.dtd"
   xmlns:inkscape="http://www.inkscape.org/namespaces/inkscape"
   width="24"
   height="24"
   viewBox="0 0 24 24"
   version="1.1"
   id="svg8"
   inkscape:version="0.92.5 (2060ec1f9f, 2020-04-08)"
   sodipodi:docname="overlay.svg">
  <defs
     id="defs2" />
  <sodipodi:namedview
     id="base"
     pagecolor="#ffffff"
     bordercolor="#666666"
     borderopacity="1.0"
     inkscape:pageopacity="0.0"
     inkscape:pageshadow="2"
     inkscape:zoom="32"
     inkscape:cx="14.603721"
     inkscape:cy="15.134566"
     inkscape:document-units="px"
     inkscape:current-layer="svg8"
     showgrid="true"
     units="px"
     showguides="true"
     inkscape:guide-bbox="true"
     inkscape:window-width="2560"
     inkscape:window-height="1351"
     inkscape:window-x="0"
     inkscape:window-y="0"
     inkscape:window-maximized="1"
     inkscape:snap-smooth-nodes="true"
     inkscape:snap-global="true">
    <inkscape:grid
       type="xygrid"
       id="grid815" />
    <sodipodi:guide
       position="0,0.79375"
       orientation="0,1"
       id="guide817"
       inkscape:locked="false" />
  </sodipodi:namedview>
  <metadata
     id="metadata5">
    <rdf:RDF>
      <cc:Work
         rdf:about="">
        <dc:format>image/svg+xml</dc:format>
        <dc:type
           rdf:resource="http://purl.org/dc/dcmitype/StillImage" />
        <dc:title></dc:title>
      </cc:Work>
    </rdf:RDF>
  </metadata>
  <path
     id="rect842"
     d="M 7.9999998,4.125 A 2.9999991,2.9999991 0 0 0 5,7.125 2.9999991,2.9999991 0 0 0 7.2499998,10.028321 V 13.125 H 2 v 3 h 21 v -3 H 17.75 V 10.025391 A 2.9999991,2.9999991 0 0 0 20,7.125 a 2.9999991,2.9999991 0 0 0 -3,-3 2.9999991,2.9999991 0 0 0 -3,3 2.9999991,2.9999991 0 0 0 2.25,2.903321 V 13.125 H 8.75 V 10.025391 A 2.9999991,2.9999991 0 0 0 11,7.125 a 2.9999991,2.9999991 0 0 0 -3.0000002,-3 z m 0,1.5 A 1.4999999,1.4999999 0 0 1 9.5,7.125 a 1.4999999,1.4999999 0 0 1 -1.5000002,1.5 1.4999999,1.4999999 0 0 1 -1.5,-1.5 1.4999999,1.4999999 0 0 1 1.5,-1.5 z M 17,5.625 a 1.4999999,1.4999999 0 0 1 1.5,1.5 1.4999999,1.4999999 0 0 1 -1.5,1.5 1.4999999,1.4999999 0 0 1 -1.5,-1.5 1.4999999,1.4999999 0 0 1 1.5,-1.5 z M 2.75,18.375 v 1.5 h 1.5 v -1.5 z m 3,0 v 1.5 h 1.4999998 v -1.5 z m 3,0 v 1.5 h 1.5 v -1.5 z m 3,0 v 1.5 h 1.5 v -1.5 z m 3,0 v 1.5 h 1.5 v -1.5 z m 3,0 v 1.5 h 1.5 v -1.5 z m 3,0 v 1.5 h 1.5 v -1.5 z"
     style="color:#000000;clip-rule:nonzero;display:inline;overflow:visible;visibility:visible;opacity:1;isolation:auto;mix-blend-mode:normal;color-interpolation:sRGB;color-interpolation-filters:linearRGB;solid-color:#000000;solid-opacity:1;vector-effect:none;fill:#000000;fill-opacity:1;fill-rule:nonzero;stroke:none;stroke-width:0;stroke-linecap:butt;stroke-linejoin:miter;stroke-miterlimit:4;stroke-dasharray:none;stroke-dashoffset:0;stroke-opacity:1;marker:none;marker-start:none;marker-mid:none;marker-end:none;paint-order:normal;color-rendering:auto;image-rendering:auto;shape-rendering:auto;text-rendering:auto;enable-background:accumulate"
     inkscape:connector-curvature="0" />
</svg>
