<?xml version="1.0" encoding="UTF-8" standalone="no"?>
<svg
   height="24"
   viewBox="0 0 24 24"
   width="24"
   version="1.1"
   id="svg6"
   sodipodi:docname="Tun.svg"
   inkscape:version="1.2.2 (b0a8486541, 2022-12-01)"
   xmlns:inkscape="http://www.inkscape.org/namespaces/inkscape"
   xmlns:sodipodi="http://sodipodi.sourceforge.net/DTD/sodipodi-0.dtd"
   xmlns="http://www.w3.org/2000/svg"
   xmlns:svg="http://www.w3.org/2000/svg"
   xmlns:rdf="http://www.w3.org/1999/02/22-rdf-syntax-ns#"
   xmlns:cc="http://creativecommons.org/ns#"
   xmlns:dc="http://purl.org/dc/elements/1.1/">
  <metadata
     id="metadata12">
    <rdf:RDF>
      <cc:Work
         rdf:about="">
        <dc:format>image/svg+xml</dc:format>
        <dc:type
           rdf:resource="http://purl.org/dc/dcmitype/StillImage" />
        <dc:title />
      </cc:Work>
    </rdf:RDF>
  </metadata>
  <defs
     id="defs10" />
  <sodipodi:namedview
     pagecolor="#ffffff"
     bordercolor="#666666"
     borderopacity="1"
     objecttolerance="10"
     gridtolerance="10"
     guidetolerance="10"
     inkscape:pageopacity="0"
     inkscape:pageshadow="2"
     inkscape:window-width="1709"
     inkscape:window-height="1083"
     id="namedview8"
     showgrid="true"
     inkscape:pagecheckerboard="false"
     showguides="true"
     inkscape:zoom="32"
     inkscape:cx="9.859375"
     inkscape:cy="12"
     inkscape:window-x="206"
     inkscape:window-y="199"
     inkscape:window-maximized="0"
     inkscape:current-layer="svg6"
     inkscape:document-rotation="0"
     inkscape:showpageshadow="2"
     inkscape:deskcolor="#d1d1d1">
    <inkscape:grid
       type="xygrid"
       id="grid4526" />
  </sodipodi:namedview>
  <path
     id="path222"
     style="fill:#000000;stroke:none;stroke-width:0.0923077"
     d="m 12,4 a 9,9 0 0 0 -9,9 v 6 h 1 2 6 6 2 1 V 13 A 9,9 0 0 0 12,4 Z m 0.5,1.0175781 a 8,8 0 0 1 3.119141,0.8476563 L 14.484375,7.5410156 A 6,6 0 0 0 12.5,7.0234375 Z m -1,0.015625 V 7.0351562 A 6,6 0 0 0 9.5136719,7.5410156 l -1.125,-1.6601562 A 8,8 0 0 1 11.5,5.0332031 Z M 16.482422,6.375 a 8,8 0 0 1 2.136719,2.1347656 L 16.818359,9.4257812 A 6,6 0 0 0 15.361328,8.03125 Z M 7.5253906,6.3886719 8.6425781,8.0390625 A 6,6 0 0 0 7.1953125,9.4296875 L 5.3964844,8.5136719 a 8,8 0 0 1 2.1289062,-2.125 z M 19.128906,9.3710938 A 8,8 0 0 1 19.935547,12 H 17.914062 A 6,6 0 0 0 17.345703,10.279297 Z M 4.8867188,9.3769531 6.6660156,10.283203 A 6,6 0 0 0 6.0917969,12 H 4.0644531 A 8,8 0 0 1 4.8867188,9.3769531 Z M 4,13 h 2 v 2 H 4 Z m 14,0 h 2 v 2 H 18 Z M 4,16 h 2 v 2 H 4 Z m 14,0 h 2 v 2 h -2 z" />
</svg>
