<?xml version="1.0" encoding="UTF-8" standalone="no"?>
<svg
   height="24"
   viewBox="0 0 24 24"
   width="24"
   version="1.1"
   id="svg6"
   sodipodi:docname="CaptureMulti.svg"
   inkscape:version="1.3.2 (091e20e, 2023-11-25, custom)"
   xmlns:inkscape="http://www.inkscape.org/namespaces/inkscape"
   xmlns:sodipodi="http://sodipodi.sourceforge.net/DTD/sodipodi-0.dtd"
   xmlns="http://www.w3.org/2000/svg"
   xmlns:svg="http://www.w3.org/2000/svg"
   xmlns:rdf="http://www.w3.org/1999/02/22-rdf-syntax-ns#"
   xmlns:cc="http://creativecommons.org/ns#"
   xmlns:dc="http://purl.org/dc/elements/1.1/">
  <metadata
     id="metadata12">
    <rdf:RDF>
      <cc:Work
         rdf:about="">
        <dc:format>image/svg+xml</dc:format>
        <dc:type
           rdf:resource="http://purl.org/dc/dcmitype/StillImage" />
      </cc:Work>
    </rdf:RDF>
  </metadata>
  <defs
     id="defs10" />
  <sodipodi:namedview
     pagecolor="#ffffff"
     bordercolor="#666666"
     borderopacity="1"
     objecttolerance="10"
     gridtolerance="10"
     guidetolerance="10"
     inkscape:pageopacity="0"
     inkscape:pageshadow="2"
     inkscape:window-width="1920"
     inkscape:window-height="1137"
     id="namedview8"
     showgrid="true"
     inkscape:pagecheckerboard="false"
     showguides="true"
     inkscape:zoom="45.254834"
     inkscape:cx="12.28598"
     inkscape:cy="13.755437"
     inkscape:window-x="-8"
     inkscape:window-y="-8"
     inkscape:window-maximized="1"
     inkscape:current-layer="svg6"
     inkscape:document-rotation="0"
     inkscape:showpageshadow="0"
     inkscape:deskcolor="#d1d1d1">
    <inkscape:grid
       type="xygrid"
       id="grid4526"
       originx="0"
       originy="0"
       spacingy="1"
       spacingx="1"
       units="px"
       visible="true" />
  </sodipodi:namedview>
  <path
     id="path1"
     style="color:#000000;fill:#000000;stroke-linecap:round;stroke-linejoin:round;-inkscape-stroke:none"
     d="M 12.853516 5.0117188 C 11.286646 5.2438475 9.136946 6.0574534 7.2988281 7.7988281 C 5.4607104 9.540203 4 12.247627 4 16 A 1 1 0 0 0 5 17 A 1 1 0 0 0 6 16 C 6 12.752387 7.1889056 10.658619 8.6757812 9.25 C 9.7574304 8.2252797 10.949419 7.6899653 12 7.3515625 L 12 11.298828 C 10.81806 12.969542 10 15.192098 10 18 A 1 1 0 0 0 11 19 A 1 1 0 0 0 12 18 C 12 14.752387 13.188906 12.658619 14.675781 11.25 C 15.671887 10.306321 16.760101 9.784041 17.757812 9.4277344 C 17.037958 12.774239 17.00534 15.091172 18.048828 18.308594 A 1 1 0 0 0 19.308594 18.951172 A 1 1 0 0 0 19.951172 17.691406 C 18.780536 14.081947 18.7839 12.693655 19.966797 8.2578125 A 1.0001 1.0001 0 0 0 18.853516 7.0117188 C 17.48192 7.214918 15.664862 7.8647762 14 9.1914062 L 14 6 A 1.0001 1.0001 0 0 0 12.853516 5.0117188 z " />
</svg>
