<?xml version="1.0" encoding="UTF-8" standalone="no"?>
<svg
   xmlns:dc="http://purl.org/dc/elements/1.1/"
   xmlns:cc="http://creativecommons.org/ns#"
   xmlns:rdf="http://www.w3.org/1999/02/22-rdf-syntax-ns#"
   xmlns:svg="http://www.w3.org/2000/svg"
   xmlns="http://www.w3.org/2000/svg"
   xmlns:sodipodi="http://sodipodi.sourceforge.net/DTD/sodipodi-0.dtd"
   xmlns:inkscape="http://www.inkscape.org/namespaces/inkscape"
   height="24"
   viewBox="0 0 24 24"
   width="24"
   version="1.1"
   id="svg6"
   sodipodi:docname="capture.svg"
   inkscape:version="1.0.1 (3bc2e813f5, 2020-09-07)">
  <metadata
     id="metadata12">
    <rdf:RDF>
      <cc:Work
         rdf:about="">
        <dc:format>image/svg+xml</dc:format>
        <dc:type
           rdf:resource="http://purl.org/dc/dcmitype/StillImage" />
        <dc:title />
      </cc:Work>
    </rdf:RDF>
  </metadata>
  <defs
     id="defs10" />
  <sodipodi:namedview
     pagecolor="#ffffff"
     bordercolor="#666666"
     borderopacity="1"
     objecttolerance="10"
     gridtolerance="10"
     guidetolerance="10"
     inkscape:pageopacity="0"
     inkscape:pageshadow="2"
     inkscape:window-width="2160"
     inkscape:window-height="1350"
     id="namedview8"
     showgrid="true"
     inkscape:pagecheckerboard="false"
     showguides="true"
     inkscape:zoom="27.812867"
     inkscape:cx="13.418015"
     inkscape:cy="14.477141"
     inkscape:window-x="-11"
     inkscape:window-y="-11"
     inkscape:window-maximized="1"
     inkscape:current-layer="svg6"
     inkscape:document-rotation="0">
    <inkscape:grid
       type="xygrid"
       id="grid4526" />
  </sodipodi:namedview>
  <path
     d="M 16.017578 5 A 1.0001 1.0001 0 0 0 15.875 5.0078125 C 15.875 5.0078125 13.643429 5.2815193 11.433594 6.8007812 C 9.3938344 8.2031158 7.4208884 10.841615 7.1171875 15 L 3 15 L 3 17 L 8 17 A 1.0001 1.0001 0 0 0 9 16 C 9 11.796296 10.776242 9.6799568 12.566406 8.4492188 C 13.320204 7.9309828 14.013447 7.6673547 14.628906 7.4472656 C 14.120034 9.2738411 13.493087 12.423147 15.072266 16.371094 A 1.0001 1.0001 0 0 0 16 17 L 21 17 L 21 15 L 16.783203 15 C 15.352701 10.639926 16.927734 6.3710938 16.927734 6.3710938 A 1.0001 1.0001 0 0 0 16.017578 5 z "
     id="path833" />
</svg>
