<?xml version="1.0" encoding="UTF-8" standalone="no"?>
<svg
   height="24"
   viewBox="0 0 24 24"
   width="24"
   version="1.1"
   id="svg6"
   sodipodi:docname="CaptureCheck.svg"
   inkscape:version="1.3.2 (091e20e, 2023-11-25, custom)"
   xmlns:inkscape="http://www.inkscape.org/namespaces/inkscape"
   xmlns:sodipodi="http://sodipodi.sourceforge.net/DTD/sodipodi-0.dtd"
   xmlns="http://www.w3.org/2000/svg"
   xmlns:svg="http://www.w3.org/2000/svg"
   xmlns:rdf="http://www.w3.org/1999/02/22-rdf-syntax-ns#"
   xmlns:cc="http://creativecommons.org/ns#"
   xmlns:dc="http://purl.org/dc/elements/1.1/">
  <metadata
     id="metadata12">
    <rdf:RDF>
      <cc:Work
         rdf:about="">
        <dc:format>image/svg+xml</dc:format>
        <dc:type
           rdf:resource="http://purl.org/dc/dcmitype/StillImage" />
      </cc:Work>
    </rdf:RDF>
  </metadata>
  <defs
     id="defs10" />
  <sodipodi:namedview
     pagecolor="#ffffff"
     bordercolor="#666666"
     borderopacity="1"
     objecttolerance="10"
     gridtolerance="10"
     guidetolerance="10"
     inkscape:pageopacity="0"
     inkscape:pageshadow="2"
     inkscape:window-width="1920"
     inkscape:window-height="1137"
     id="namedview8"
     showgrid="true"
     inkscape:pagecheckerboard="false"
     showguides="true"
     inkscape:zoom="32"
     inkscape:cx="3.546875"
     inkscape:cy="13.234375"
     inkscape:window-x="-8"
     inkscape:window-y="-8"
     inkscape:window-maximized="1"
     inkscape:current-layer="svg6"
     inkscape:document-rotation="0"
     inkscape:showpageshadow="0"
     inkscape:deskcolor="#d1d1d1">
    <inkscape:grid
       type="xygrid"
       id="grid4526"
       originx="0"
       originy="0"
       spacingy="1"
       spacingx="1"
       units="px"
       visible="true" />
  </sodipodi:namedview>
  <path
     id="path1"
     style="stroke-width:0.025"
     d="M 5 3 C 4.4500006 3 3.9795569 3.1962243 3.5878906 3.5878906 C 3.1962243 3.9795569 3 4.4500006 3 5 L 3 19 C 3 19.549999 3.1962243 20.020443 3.5878906 20.412109 C 3.9795569 20.803776 4.4500006 21 5 21 L 19 21 C 19.549999 21 20.020443 20.803776 20.412109 20.412109 C 20.803776 20.020443 21 19.549999 21 19 L 21 5 C 21 4.4500006 20.803776 3.9795569 20.412109 3.5878906 C 20.020443 3.1962243 19.549999 3 19 3 L 5 3 z M 5 5 L 19 5 L 19 19 L 5 19 L 5 5 z M 16.003906 7 A 1.0001 1.0001 0 0 0 15.853516 7.0117188 C 14.525642 7.2084346 12.355528 7.4503657 10.445312 8.6855469 C 8.5350963 9.9207279 7 12.247633 7 16 A 1 1 0 0 0 8 17 A 1 1 0 0 0 9 16 C 9 12.752393 10.116473 11.280055 11.53125 10.365234 C 12.527481 9.7210529 13.68811 9.4411605 14.791016 9.2382812 C 14.215342 12.030752 14.192425 13.741338 15.050781 16.316406 A 1 1 0 0 0 16.316406 16.949219 A 1 1 0 0 0 16.949219 15.683594 C 15.970303 12.746845 15.98022 12.204135 16.970703 8.2421875 A 1.0001 1.0001 0 0 0 16.003906 7 z " />
</svg>
