<?xml version="1.0" encoding="UTF-8" standalone="no"?>
<svg
   height="24"
   viewBox="0 0 24 24"
   width="24"
   version="1.1"
   id="svg6"
   sodipodi:docname="CaptureMultiOn.svg"
   inkscape:version="1.3.2 (091e20e, 2023-11-25, custom)"
   xmlns:inkscape="http://www.inkscape.org/namespaces/inkscape"
   xmlns:sodipodi="http://sodipodi.sourceforge.net/DTD/sodipodi-0.dtd"
   xmlns="http://www.w3.org/2000/svg"
   xmlns:svg="http://www.w3.org/2000/svg"
   xmlns:rdf="http://www.w3.org/1999/02/22-rdf-syntax-ns#"
   xmlns:cc="http://creativecommons.org/ns#"
   xmlns:dc="http://purl.org/dc/elements/1.1/">
  <metadata
     id="metadata12">
    <rdf:RDF>
      <cc:Work
         rdf:about="">
        <dc:format>image/svg+xml</dc:format>
        <dc:type
           rdf:resource="http://purl.org/dc/dcmitype/StillImage" />
      </cc:Work>
    </rdf:RDF>
  </metadata>
  <defs
     id="defs10" />
  <sodipodi:namedview
     pagecolor="#ffffff"
     bordercolor="#666666"
     borderopacity="1"
     objecttolerance="10"
     gridtolerance="10"
     guidetolerance="10"
     inkscape:pageopacity="0"
     inkscape:pageshadow="2"
     inkscape:window-width="1920"
     inkscape:window-height="1137"
     id="namedview8"
     showgrid="true"
     inkscape:pagecheckerboard="false"
     showguides="true"
     inkscape:zoom="22.627417"
     inkscape:cx="10.16466"
     inkscape:cy="9.4354561"
     inkscape:window-x="-8"
     inkscape:window-y="-8"
     inkscape:window-maximized="1"
     inkscape:current-layer="svg6"
     inkscape:document-rotation="0"
     inkscape:showpageshadow="0"
     inkscape:deskcolor="#d1d1d1">
    <inkscape:grid
       type="xygrid"
       id="grid4526"
       originx="0"
       originy="0"
       spacingy="1"
       spacingx="1"
       units="px"
       visible="true" />
  </sodipodi:namedview>
  <path
     id="path1-6"
     style="color:#000000;fill:#000000;stroke-linecap:round;stroke-linejoin:round;-inkscape-stroke:none"
     d="M 11.984375 3 C 11.941061 3.0008129 11.897959 3.0051276 11.853516 3.0117188 C 10.286646 3.2438475 8.136946 4.0574533 6.2988281 5.7988281 C 4.4607104 7.5402031 3 10.247626 3 14 C 3.0000552 14.552261 3.4477387 14.999945 4 15 L 12 15 C 12.009951 14.999998 12.019433 14.998331 12.029297 14.998047 C 11.395157 16.392601 11 18.054836 11 20 C 11.000055 20.552261 11.447739 20.999945 12 21 L 20 21 C 20.679123 20.999892 21.160657 20.337413 20.951172 19.691406 C 19.780536 16.081947 19.7839 14.693655 20.966797 10.257812 C 21.151395 9.5630514 20.564604 8.9062558 19.853516 9.0117188 C 18.286646 9.2438477 16.136946 10.057454 14.298828 11.798828 C 13.789668 12.28119 13.311031 12.84037 12.882812 13.472656 C 11.784853 10.027645 11.808678 8.6007383 12.966797 4.2578125 C 13.139855 3.6064764 12.634083 2.9878063 11.984375 3 z " />
</svg>
