<?xml version="1.0" encoding="UTF-8" standalone="no"?>
<svg
   height="24"
   viewBox="0 0 24 24"
   width="24"
   version="1.1"
   id="svg6"
   sodipodi:docname="CaptureOff.svg"
   inkscape:version="1.3.2 (091e20e, 2023-11-25, custom)"
   xmlns:inkscape="http://www.inkscape.org/namespaces/inkscape"
   xmlns:sodipodi="http://sodipodi.sourceforge.net/DTD/sodipodi-0.dtd"
   xmlns="http://www.w3.org/2000/svg"
   xmlns:svg="http://www.w3.org/2000/svg"
   xmlns:rdf="http://www.w3.org/1999/02/22-rdf-syntax-ns#"
   xmlns:cc="http://creativecommons.org/ns#"
   xmlns:dc="http://purl.org/dc/elements/1.1/">
  <metadata
     id="metadata12">
    <rdf:RDF>
      <cc:Work
         rdf:about="">
        <dc:format>image/svg+xml</dc:format>
        <dc:type
           rdf:resource="http://purl.org/dc/dcmitype/StillImage" />
      </cc:Work>
    </rdf:RDF>
  </metadata>
  <defs
     id="defs10" />
  <sodipodi:namedview
     pagecolor="#ffffff"
     bordercolor="#666666"
     borderopacity="1"
     objecttolerance="10"
     gridtolerance="10"
     guidetolerance="10"
     inkscape:pageopacity="0"
     inkscape:pageshadow="2"
     inkscape:window-width="1920"
     inkscape:window-height="1137"
     id="namedview8"
     showgrid="true"
     inkscape:pagecheckerboard="false"
     showguides="true"
     inkscape:zoom="32"
     inkscape:cx="6.1875"
     inkscape:cy="14.109375"
     inkscape:window-x="-8"
     inkscape:window-y="-8"
     inkscape:window-maximized="1"
     inkscape:current-layer="svg6"
     inkscape:document-rotation="0"
     inkscape:showpageshadow="0"
     inkscape:deskcolor="#d1d1d1">
    <inkscape:grid
       type="xygrid"
       id="grid4526"
       originx="0"
       originy="0"
       spacingy="1"
       spacingx="1"
       units="px"
       visible="true" />
  </sodipodi:namedview>
  <path
     id="path1"
     style="color:#000000;fill:#000000;stroke-linejoin:round;-inkscape-stroke:none"
     d="M 3.515625 3.515625 L 2.0996094 4.9296875 L 8.0996094 10.929688 C 7.5738688 12.09927 7.2145453 13.456558 7.0976562 15 L 3 15 L 3 17 L 8 17 A 1.0001 1.0001 0 0 0 9 16 C 9 14.605613 9.2213081 13.425452 9.5898438 12.419922 L 19.070312 21.900391 L 20.484375 20.484375 L 17 17 L 14.570312 14.570312 L 10.554688 10.554688 L 9.1328125 9.1328125 L 3.515625 3.515625 z M 16.033203 5.0019531 A 1.0001 1.0001 0 0 0 15.853516 5.0117188 C 14.335311 5.2366379 12.269648 6.0088512 10.470703 7.640625 L 11.890625 9.0605469 C 12.82722 8.2384198 13.831034 7.758709 14.757812 7.4277344 C 14.441204 8.8996037 14.257873 10.172406 14.240234 11.410156 L 16.445312 13.615234 C 15.929448 11.373929 16.05414 9.6802757 16.966797 6.2578125 A 1.0001 1.0001 0 0 0 16.033203 5.0019531 z M 17.830078 15 L 19.830078 17 L 21 17 L 21 15 L 17.830078 15 z " />
</svg>
