<?xml version="1.0" encoding="UTF-8" standalone="no"?>
<svg
   height="24"
   viewBox="0 0 24 24"
   width="24"
   version="1.1"
   id="svg6"
   sodipodi:docname="CaptureMulti.svg"
   inkscape:version="1.3.2 (091e20e, 2023-11-25, custom)"
   xmlns:inkscape="http://www.inkscape.org/namespaces/inkscape"
   xmlns:sodipodi="http://sodipodi.sourceforge.net/DTD/sodipodi-0.dtd"
   xmlns="http://www.w3.org/2000/svg"
   xmlns:svg="http://www.w3.org/2000/svg"
   xmlns:rdf="http://www.w3.org/1999/02/22-rdf-syntax-ns#"
   xmlns:cc="http://creativecommons.org/ns#"
   xmlns:dc="http://purl.org/dc/elements/1.1/">
  <metadata
     id="metadata12">
    <rdf:RDF>
      <cc:Work
         rdf:about="">
        <dc:format>image/svg+xml</dc:format>
        <dc:type
           rdf:resource="http://purl.org/dc/dcmitype/StillImage" />
      </cc:Work>
    </rdf:RDF>
  </metadata>
  <defs
     id="defs10" />
  <sodipodi:namedview
     pagecolor="#ffffff"
     bordercolor="#666666"
     borderopacity="1"
     objecttolerance="10"
     gridtolerance="10"
     guidetolerance="10"
     inkscape:pageopacity="0"
     inkscape:pageshadow="2"
     inkscape:window-width="1346"
     inkscape:window-height="1160"
     id="namedview8"
     showgrid="true"
     inkscape:pagecheckerboard="false"
     showguides="true"
     inkscape:zoom="22.627417"
     inkscape:cx="13.744388"
     inkscape:cy="13.12567"
     inkscape:window-x="2058"
     inkscape:window-y="26"
     inkscape:window-maximized="0"
     inkscape:current-layer="svg6"
     inkscape:document-rotation="0"
     inkscape:showpageshadow="0"
     inkscape:deskcolor="#d1d1d1">
    <inkscape:grid
       type="xygrid"
       id="grid4526"
       originx="0"
       originy="0"
       spacingy="1"
       spacingx="1"
       units="px"
       visible="true" />
  </sodipodi:namedview>
  <path
     id="path1-6"
     style="color:#000000;fill:#000000;stroke-linecap:round;stroke-linejoin:round;-inkscape-stroke:none"
     d="M 12.005859 3 A 1.0001 1.0001 0 0 0 11.853516 3.0117188 C 10.286646 3.2438475 8.136946 4.0574533 6.2988281 5.7988281 C 4.4607104 7.540203 3 10.247626 3 14 A 1 1 0 0 0 4 15 A 1 1 0 0 0 5 14 C 5 10.752387 6.1889057 8.658619 7.6757812 7.25 C 8.6718869 6.3063209 9.7601009 5.7840411 10.757812 5.4277344 C 10.037957 8.7742392 10.00534 11.091172 11.048828 14.308594 A 1 1 0 0 0 12.03125 14.996094 C 11.396474 16.391135 11 18.053728 11 20 A 1 1 0 0 0 12 21 A 1 1 0 0 0 13 20 C 13 16.752387 14.188906 14.658619 15.675781 13.25 C 16.671887 12.306321 17.760101 11.784042 18.757812 11.427734 C 18.037958 14.77424 18.00534 17.091172 19.048828 20.308594 A 1 1 0 0 0 20.308594 20.951172 A 1 1 0 0 0 20.951172 19.691406 C 19.780536 16.081947 19.7839 14.693655 20.966797 10.257812 A 1.0001 1.0001 0 0 0 19.853516 9.0117188 C 18.286646 9.2438475 16.136946 10.057454 14.298828 11.798828 C 13.789668 12.28119 13.311031 12.84037 12.882812 13.472656 C 11.784853 10.027645 11.808683 8.6007383 12.966797 4.2578125 A 1.0001 1.0001 0 0 0 12.005859 3 z " />
</svg>
