<?xml version="1.0" encoding="UTF-8" standalone="no"?>
<svg
   height="24"
   viewBox="0 0 24 24"
   width="24"
   version="1.1"
   id="svg6"
   sodipodi:docname="Case.svg"
   inkscape:version="1.2.2 (b0a8486541, 2022-12-01)"
   xmlns:inkscape="http://www.inkscape.org/namespaces/inkscape"
   xmlns:sodipodi="http://sodipodi.sourceforge.net/DTD/sodipodi-0.dtd"
   xmlns="http://www.w3.org/2000/svg"
   xmlns:svg="http://www.w3.org/2000/svg"
   xmlns:rdf="http://www.w3.org/1999/02/22-rdf-syntax-ns#"
   xmlns:cc="http://creativecommons.org/ns#"
   xmlns:dc="http://purl.org/dc/elements/1.1/">
  <metadata
     id="metadata12">
    <rdf:RDF>
      <cc:Work
         rdf:about="">
        <dc:format>image/svg+xml</dc:format>
        <dc:type
           rdf:resource="http://purl.org/dc/dcmitype/StillImage" />
        <dc:title />
      </cc:Work>
    </rdf:RDF>
  </metadata>
  <defs
     id="defs10" />
  <sodipodi:namedview
     pagecolor="#ffffff"
     bordercolor="#666666"
     borderopacity="1"
     objecttolerance="10"
     gridtolerance="10"
     guidetolerance="10"
     inkscape:pageopacity="0"
     inkscape:pageshadow="2"
     inkscape:window-width="2560"
     inkscape:window-height="1362"
     id="namedview8"
     showgrid="true"
     inkscape:pagecheckerboard="false"
     showguides="true"
     inkscape:zoom="27.812867"
     inkscape:cx="-5.1774598"
     inkscape:cy="9.4380777"
     inkscape:window-x="0"
     inkscape:window-y="0"
     inkscape:window-maximized="1"
     inkscape:current-layer="svg6"
     inkscape:document-rotation="0"
     inkscape:showpageshadow="2"
     inkscape:deskcolor="#d1d1d1">
    <inkscape:grid
       type="xygrid"
       id="grid4526" />
  </sodipodi:namedview>
  <path
     d="M 3.975,17 7.725,7 h 1.8 l 3.75,10 H 11.55 l -0.9,-2.55 H 6.6 L 5.7,17 Z m 3.15,-4 h 3 L 8.675,8.85 h -0.1 z m 9.225,4.275 q -1.225,0 -1.925,-0.6375 -0.7,-0.6375 -0.7,-1.7375 0,-1.05 0.8125,-1.7125 0.8125,-0.6625 2.0875,-0.6625 0.575,0 1.0625,0.0875 Q 18.175,12.7 18.525,12.9 v -0.35 q 0,-0.675 -0.4625,-1.075 -0.4625,-0.4 -1.2625,-0.4 -0.525,0 -0.9875,0.225 -0.4625,0.225 -0.7875,0.65 l -1.075,-0.8 q 0.475,-0.675 1.2,-1.025 0.725,-0.35 1.675,-0.35 1.55,0 2.375,0.7375 0.825,0.7375 0.825,2.1375 v 4.4 H 18.55 V 16.2 H 18.475 Q 18.15,16.7 17.6,16.9875 17.05,17.275 16.35,17.275 Z m 0.25,-1.25 q 0.8,0 1.3625,-0.5625 Q 18.525,14.9 18.525,14.1 q -0.35,-0.2 -0.8,-0.3 -0.45,-0.1 -0.825,-0.1 -0.8,0 -1.225,0.3125 -0.425,0.3125 -0.425,0.8875 0,0.5 0.375,0.8125 Q 16,16.025 16.6,16.025 Z"
     id="path2"
     style="stroke-width:0.025" />
</svg>
