<?xml version="1.0" encoding="UTF-8" standalone="no"?>
<svg
   xmlns:dc="http://purl.org/dc/elements/1.1/"
   xmlns:cc="http://creativecommons.org/ns#"
   xmlns:rdf="http://www.w3.org/1999/02/22-rdf-syntax-ns#"
   xmlns:svg="http://www.w3.org/2000/svg"
   xmlns="http://www.w3.org/2000/svg"
   xmlns:sodipodi="http://sodipodi.sourceforge.net/DTD/sodipodi-0.dtd"
   xmlns:inkscape="http://www.inkscape.org/namespaces/inkscape"
   height="24px"
   viewBox="0 0 24 24"
   width="24px"
   fill="#000000"
   version="1.1"
   id="svg68"
   sodipodi:docname="Density.svg"
   inkscape:version="1.0.2 (e86c870879, 2021-01-15)">
  <metadata
     id="metadata74">
    <rdf:RDF>
      <cc:Work
         rdf:about="">
        <dc:format>image/svg+xml</dc:format>
        <dc:type
           rdf:resource="http://purl.org/dc/dcmitype/StillImage" />
        <dc:title></dc:title>
      </cc:Work>
    </rdf:RDF>
  </metadata>
  <defs
     id="defs72" />
  <sodipodi:namedview
     pagecolor="#ffffff"
     bordercolor="#666666"
     borderopacity="1"
     objecttolerance="10"
     gridtolerance="10"
     guidetolerance="10"
     inkscape:pageopacity="0"
     inkscape:pageshadow="2"
     inkscape:window-width="1234"
     inkscape:window-height="1035"
     id="namedview70"
     showgrid="true"
     inkscape:zoom="29.791667"
     inkscape:cx="12"
     inkscape:cy="12"
     inkscape:window-x="188"
     inkscape:window-y="126"
     inkscape:window-maximized="0"
     inkscape:current-layer="svg68">
    <inkscape:grid
       type="xygrid"
       id="grid76" />
  </sodipodi:namedview>
  <path
     d="M0 0h24v24H0V0z"
     fill="none"
     id="path64" />
  <path
     id="rect129-5-8-1-37-4"
     style="fill:#000000"
     d="m 19,21 h 1 v 1 h -1 z m -4,0 h 1 v 1 h -1 z m 2,0 h 1 v 1 h -1 z m 3,-1 h 1 v 1 h -1 z m 0,-2 h 1 v 1 h -1 z m -1,1 h 1 v 1 h -1 z m 0,-2 h 1 v 1 h -1 z m -1,3 h 1 v 1 h -1 z m -2,0 h 1 v 1 h -1 z m -1,-1 h 1 v 1 h -1 z m 2,0 h 1 v 1 h -1 z m 1,-1 h 1 v 1 h -1 z m -2,0 h 1 v 1 h -1 z m -1,-1 h 1 v 1 h -1 z m 2,0 h 1 v 1 h -1 z m 3,-1 h 1 v 1 h -1 z m 0,-2 h 1 v 1 h -1 z m -1,1 h 1 v 1 h -1 z m 0,-2 h 1 v 1 h -1 z m -1,3 h 1 v 1 h -1 z m -2,0 h 1 v 1 h -1 z m -1,-1 h 1 v 1 h -1 z m 2,0 h 1 v 1 h -1 z m 1,-1 h 1 v 1 h -1 z m -2,0 h 1 v 1 h -1 z m -1,-1 h 1 v 1 h -1 z m 2,0 h 1 v 1 h -1 z m 3,-1 h 1 v 1 h -1 z m 0,-2 h 1 v 1 h -1 z m 0,-2 h 1 v 1 h -1 z m 0,-2 h 1 v 1 h -1 z m 0,-2 h 1 v 1 h -1 z m -1,7 h 1 v 1 h -1 z m 0,-2 h 1 v 1 h -1 z m 0,-2 h 1 v 1 h -1 z m 0,-2 h 1 v 1 h -1 z m 0,-2 h 1 V 4 H 19 Z M 11,2 h 2 V 22 H 11 Z M 6,18 h 3 v 3 H 6 Z M 3,15 h 3 v 3 H 3 Z m 3,-3 h 3 v 3 H 6 Z M 3,9 h 3 v 3 H 3 Z M 6,6 H 9 V 9 H 6 Z m 12,6 h 1 v 1 h -1 z m -2,0 h 1 v 1 h -1 z m -1,-1 h 1 v 1 h -1 z m 2,0 h 1 v 1 h -1 z m 1,-1 h 1 v 1 h -1 z m -2,0 h 1 v 1 H 16 Z M 15,9 h 1 v 1 h -1 z m 2,0 h 1 v 1 h -1 z m 1,-1 h 1 v 1 h -1 z m -2,0 h 1 V 9 H 16 Z M 15,7 h 1 v 1 h -1 z m 2,0 h 1 v 1 h -1 z m 1,-1 h 1 v 1 h -1 z m -2,0 h 1 V 7 H 16 Z M 15,5 h 1 v 1 h -1 z m 2,0 h 1 v 1 h -1 z m 1,-1 h 1 v 1 h -1 z m -2,0 h 1 V 5 H 16 Z M 15,3 h 1 v 1 h -1 z m 2,0 h 1 V 4 H 17 Z M 3,3 H 6 V 6 H 3 Z" />
</svg>
