<?xml version="1.0" encoding="UTF-8" standalone="no"?>
<svg
   height="24px"
   viewBox="0 0 24 24"
   width="24px"
   fill="#000000"
   version="1.1"
   id="svg6"
   sodipodi:docname="process.svg"
   inkscape:version="1.1 (c68e22c387, 2021-05-23)"
   xmlns:inkscape="http://www.inkscape.org/namespaces/inkscape"
   xmlns:sodipodi="http://sodipodi.sourceforge.net/DTD/sodipodi-0.dtd"
   xmlns="http://www.w3.org/2000/svg"
   xmlns:svg="http://www.w3.org/2000/svg">
  <defs
     id="defs10" />
  <sodipodi:namedview
     id="namedview8"
     pagecolor="#ffffff"
     bordercolor="#999999"
     borderopacity="1"
     inkscape:pageshadow="0"
     inkscape:pageopacity="0"
     inkscape:pagecheckerboard="0"
     showgrid="false"
     inkscape:zoom="43.583333"
     inkscape:cx="12"
     inkscape:cy="12"
     inkscape:window-width="2160"
     inkscape:window-height="1350"
     inkscape:window-x="-11"
     inkscape:window-y="-11"
     inkscape:window-maximized="1"
     inkscape:current-layer="svg6" />
  <path
     d="M0 0h24v24H0V0z"
     fill="none"
     id="path2" />
  <path
     d="M 21,11 V 9 H 19 V 7 C 19,5.9 18.1,5 17,5 H 15 V 3 H 13 V 5 H 11 V 3 H 9 V 5 H 7 C 5.9,5 5,5.9 5,7 V 9 H 3 v 2 h 2 v 2 H 3 v 2 h 2 v 2 c 0,1.1 0.9,2 2,2 h 2 v 2 h 2 v -2 h 2 v 2 h 2 v -2 h 2 c 1.1,0 2,-0.9 2,-2 v -2 h 2 v -2 h -2 v -2 z m -4,6 H 7 V 7 h 10 z"
     id="path4"
     sodipodi:nodetypes="cccssccccccccssccccccccssccccccccssccccccccccc" />
  <path
     d="m 14.815,9.2199998 -1,0.4 c -0.21,-0.16 -0.43,-0.29 -0.67,-0.3900001 l -0.15,-1.06 c -0.02,-0.1 -0.1,-0.17 -0.2,-0.17 h -1.6 c -0.1,0 -0.18,0.07 -0.19,0.17 l -0.15,1.06 c -0.24,0.1 -0.47,0.2300001 -0.67,0.3900001 l -1,-0.4 c -0.09,-0.03 -0.2,0 -0.24,0.09 l -0.8,1.3799993 c -0.05,0.09 -0.03,0.2 0.05,0.26 l 0.85,0.66 c -0.03,0.12 -0.05,0.26 -0.05,0.39 0,0.13 0.01,0.26 0.03,0.39 l -0.84,0.66 c -0.08,0.06 -0.1,0.17 -0.05,0.25 L 8.935,14.69 c 0.05,0.09 0.15,0.12 0.25,0.09 l 0.99,-0.4 c 0.21,0.16 0.43,0.29 0.68,0.39 l 0.14,1.06 c 0.02,0.1 0.1,0.17 0.2,0.17 h 1.6 c 0.1,0 0.18,-0.07 0.2,-0.17 l 0.15,-1.06 c 0.24,-0.1 0.47,-0.23 0.67,-0.39 l 0.99,0.4 c 0.09,0.04 0.2,0 0.24,-0.09 l 0.8,-1.390001 c 0.05,-0.09 0.03,-0.19 -0.05,-0.25 l -0.83,-0.66 c 0.02,-0.13 0.03,-0.26 0.03,-0.39 0,-0.14 -0.01,-0.27 -0.03,-0.39 l 0.85,-0.66 c 0.08,-0.06 0.1,-0.17 0.05,-0.26 l -0.8,-1.3799993 c -0.05,-0.09 -0.16,-0.1199999 -0.25,-0.09 z m -2.82,4.2099992 c -0.79,0 -1.43,-0.64 -1.43,-1.43 0,-0.79 0.64,-1.43 1.43,-1.43 0.79,0 1.43,0.64 1.43,1.43 0,0.79 -0.64,1.43 -1.43,1.43 z"
     id="path6" />
</svg>
