<?xml version="1.0" encoding="UTF-8" standalone="no"?>
<svg
   height="24"
   viewBox="0 0 24 24"
   width="24"
   version="1.1"
   id="svg6"
   sodipodi:docname="Regexp.svg"
   inkscape:version="1.2.2 (b0a8486541, 2022-12-01)"
   xmlns:inkscape="http://www.inkscape.org/namespaces/inkscape"
   xmlns:sodipodi="http://sodipodi.sourceforge.net/DTD/sodipodi-0.dtd"
   xmlns="http://www.w3.org/2000/svg"
   xmlns:svg="http://www.w3.org/2000/svg"
   xmlns:rdf="http://www.w3.org/1999/02/22-rdf-syntax-ns#"
   xmlns:cc="http://creativecommons.org/ns#"
   xmlns:dc="http://purl.org/dc/elements/1.1/">
  <metadata
     id="metadata12">
    <rdf:RDF>
      <cc:Work
         rdf:about="">
        <dc:format>image/svg+xml</dc:format>
        <dc:type
           rdf:resource="http://purl.org/dc/dcmitype/StillImage" />
        <dc:title />
      </cc:Work>
    </rdf:RDF>
  </metadata>
  <defs
     id="defs10" />
  <sodipodi:namedview
     pagecolor="#ffffff"
     bordercolor="#666666"
     borderopacity="1"
     objecttolerance="10"
     gridtolerance="10"
     guidetolerance="10"
     inkscape:pageopacity="0"
     inkscape:pageshadow="2"
     inkscape:window-width="1444"
     inkscape:window-height="1236"
     id="namedview8"
     showgrid="true"
     inkscape:pagecheckerboard="false"
     showguides="true"
     inkscape:zoom="27.812867"
     inkscape:cx="14.921151"
     inkscape:cy="9.4740323"
     inkscape:window-x="556"
     inkscape:window-y="61"
     inkscape:window-maximized="0"
     inkscape:current-layer="svg6"
     inkscape:document-rotation="0"
     inkscape:showpageshadow="2"
     inkscape:deskcolor="#d1d1d1">
    <inkscape:grid
       type="xygrid"
       id="grid4526" />
  </sodipodi:namedview>
  <path
     d="M 4.925,19.075 Q 3.525,17.65 2.7625,15.825 2,14 2,12 2,10 2.75,8.175 3.5,6.35 4.925,4.925 L 6.35,6.35 Q 5.2,7.475 4.6,8.9375 4,10.4 4,12 4,13.6 4.6125,15.0625 5.225,16.525 6.35,17.65 Z M 9.5,18.05 Q 8.875,18.05 8.4375,17.6125 8,17.175 8,16.55 8,15.925 8.4375,15.4875 8.875,15.05 9.5,15.05 q 0.625,0 1.0625,0.4375 Q 11,15.925 11,16.55 11,17.175 10.5625,17.6125 10.125,18.05 9.5,18.05 Z m 3.475,-5 v -1.775 l -1.525,0.9 -1,-1.75 1.525,-0.875 -1.525,-0.875 1,-1.75 1.525,0.9 V 6.05 h 2 v 1.775 l 1.525,-0.9 1,1.75 -1.525,0.875 1.525,0.875 -1,1.75 -1.525,-0.9 v 1.775 z m 6.1,6.025 L 17.65,17.65 Q 18.8,16.525 19.4,15.0625 20,13.6 20,12 20,10.4 19.3875,8.9375 18.775,7.475 17.65,6.35 l 1.425,-1.425 q 1.4,1.425 2.1625,3.25 Q 22,10 22,12 q 0,2 -0.75,3.825 -0.75,1.825 -2.175,3.25 z"
     id="path8"
     style="stroke-width:0.025" />
</svg>
