<?xml version="1.0" encoding="UTF-8" standalone="no"?>
<svg
   xmlns:dc="http://purl.org/dc/elements/1.1/"
   xmlns:cc="http://creativecommons.org/ns#"
   xmlns:rdf="http://www.w3.org/1999/02/22-rdf-syntax-ns#"
   xmlns:svg="http://www.w3.org/2000/svg"
   xmlns="http://www.w3.org/2000/svg"
   xmlns:sodipodi="http://sodipodi.sourceforge.net/DTD/sodipodi-0.dtd"
   xmlns:inkscape="http://www.inkscape.org/namespaces/inkscape"
   height="24"
   viewBox="0 0 24 24"
   width="24"
   version="1.1"
   id="svg6"
   sodipodi:docname="Netns.svg"
   inkscape:version="1.0.1 (3bc2e813f5, 2020-09-07)">
  <metadata
     id="metadata12">
    <rdf:RDF>
      <cc:Work
         rdf:about="">
        <dc:format>image/svg+xml</dc:format>
        <dc:type
           rdf:resource="http://purl.org/dc/dcmitype/StillImage" />
        <dc:title />
      </cc:Work>
    </rdf:RDF>
  </metadata>
  <defs
     id="defs10" />
  <sodipodi:namedview
     pagecolor="#ffffff"
     bordercolor="#666666"
     borderopacity="1"
     objecttolerance="10"
     gridtolerance="10"
     guidetolerance="10"
     inkscape:pageopacity="0"
     inkscape:pageshadow="2"
     inkscape:window-width="1709"
     inkscape:window-height="1083"
     id="namedview8"
     showgrid="true"
     inkscape:pagecheckerboard="false"
     showguides="true"
     inkscape:zoom="27.812867"
     inkscape:cx="13.418015"
     inkscape:cy="14.477141"
     inkscape:window-x="114"
     inkscape:window-y="181"
     inkscape:window-maximized="0"
     inkscape:current-layer="svg6"
     inkscape:document-rotation="0">
    <inkscape:grid
       type="xygrid"
       id="grid4526" />
  </sodipodi:namedview>
  <path
     id="path820"
     d="M 5 3 C 3.9 3 3 3.9 3 5 L 3 19 C 3 20.1 3.9 21 5 21 L 19 21 C 20.1 21 21 20.1 21 19 L 21 5 C 21 3.9 20.1 3 19 3 L 5 3 z M 5 5 L 19 5 L 19 19 L 5 19 L 5 5 z M 9 7 L 9 13 L 11 13 L 11 16 C 11 16.554 11.446 17 12 17 C 12.554 17 13 16.554 13 16 L 13 13 L 15 13 L 15 7 L 9 7 z M 11 8 L 13 8 L 13 10.851562 L 11 10.851562 L 11 8 z " />
</svg>
