<?xml version="1.0" encoding="UTF-8" standalone="no"?>
<svg
   xmlns:dc="http://purl.org/dc/elements/1.1/"
   xmlns:cc="http://creativecommons.org/ns#"
   xmlns:rdf="http://www.w3.org/1999/02/22-rdf-syntax-ns#"
   xmlns:svg="http://www.w3.org/2000/svg"
   xmlns="http://www.w3.org/2000/svg"
   xmlns:sodipodi="http://sodipodi.sourceforge.net/DTD/sodipodi-0.dtd"
   xmlns:inkscape="http://www.inkscape.org/namespaces/inkscape"
   height="24"
   viewBox="0 0 24 24"
   width="24"
   version="1.1"
   id="svg6"
   sodipodi:docname="details.svg"
   inkscape:version="0.92.5 (2060ec1f9f, 2020-04-08)">
  <metadata
     id="metadata12">
    <rdf:RDF>
      <cc:Work
         rdf:about="">
        <dc:format>image/svg+xml</dc:format>
        <dc:type
           rdf:resource="http://purl.org/dc/dcmitype/StillImage" />
        <dc:title></dc:title>
      </cc:Work>
    </rdf:RDF>
  </metadata>
  <defs
     id="defs10" />
  <sodipodi:namedview
     pagecolor="#ffffff"
     bordercolor="#666666"
     borderopacity="1"
     objecttolerance="10"
     gridtolerance="10"
     guidetolerance="10"
     inkscape:pageopacity="0"
     inkscape:pageshadow="2"
     inkscape:window-width="1709"
     inkscape:window-height="1083"
     id="namedview8"
     showgrid="true"
     inkscape:pagecheckerboard="false"
     showguides="true"
     inkscape:zoom="27.812867"
     inkscape:cx="9.7299346"
     inkscape:cy="13.2063"
     inkscape:window-x="42"
     inkscape:window-y="133"
     inkscape:window-maximized="0"
     inkscape:current-layer="svg6">
    <inkscape:grid
       type="xygrid"
       id="grid4526" />
  </sodipodi:namedview>
  <path
     style="color:#000000;overflow:visible;opacity:1;vector-effect:none;fill:#000000;fill-opacity:1;stroke:none;stroke-width:0.1;stroke-linecap:butt;stroke-linejoin:round;stroke-miterlimit:4;stroke-dasharray:none;stroke-dashoffset:0;stroke-opacity:1"
     d="M 5 3 C 3.892 3 3 3.892 3 5 L 3 8 C 3 9.108 3.892 10 5 10 L 8 10 C 9.108 10 10 9.108 10 8 L 10 5 C 10 3.892 9.108 3 8 3 L 5 3 z M 12 3 L 12 5 L 20 5 L 20 3 L 12 3 z M 5 5 L 8 5 L 8 8 L 5 8 L 5 5 z M 12 7 L 12 9 L 21 9 L 21 7 L 12 7 z M 5 13 C 3.892 13 3 13.892 3 15 L 3 18 C 3 19.108 3.892 20 5 20 L 8 20 C 9.108 20 10 19.108 10 18 L 10 15 C 10 13.892 9.108 13 8 13 L 5 13 z M 12 13 L 12 15 L 20 15 L 20 13 L 12 13 z M 5 15 L 8 15 L 8 18 L 5 18 L 5 15 z M 12 17 L 12 19 L 21 19 L 21 17 L 12 17 z "
     id="rect905" />
</svg>
