<?xml version="1.0" encoding="UTF-8" standalone="no"?>
<svg
   height="24"
   viewBox="0 0 24 24"
   width="24"
   version="1.1"
   id="svg6"
   sodipodi:docname="OpenHouse.svg"
   inkscape:version="1.1.2 (0a00cf5339, 2022-02-04)"
   xmlns:inkscape="http://www.inkscape.org/namespaces/inkscape"
   xmlns:sodipodi="http://sodipodi.sourceforge.net/DTD/sodipodi-0.dtd"
   xmlns="http://www.w3.org/2000/svg"
   xmlns:svg="http://www.w3.org/2000/svg"
   xmlns:rdf="http://www.w3.org/1999/02/22-rdf-syntax-ns#"
   xmlns:cc="http://creativecommons.org/ns#"
   xmlns:dc="http://purl.org/dc/elements/1.1/">
  <metadata
     id="metadata12">
    <rdf:RDF>
      <cc:Work
         rdf:about="">
        <dc:format>image/svg+xml</dc:format>
        <dc:type
           rdf:resource="http://purl.org/dc/dcmitype/StillImage" />
        <dc:title />
      </cc:Work>
    </rdf:RDF>
  </metadata>
  <defs
     id="defs10" />
  <sodipodi:namedview
     pagecolor="#ffffff"
     bordercolor="#666666"
     borderopacity="1"
     objecttolerance="10"
     gridtolerance="10"
     guidetolerance="10"
     inkscape:pageopacity="0"
     inkscape:pageshadow="2"
     inkscape:window-width="1709"
     inkscape:window-height="1083"
     id="namedview8"
     showgrid="true"
     inkscape:pagecheckerboard="false"
     showguides="true"
     inkscape:zoom="27.812867"
     inkscape:cx="9.7616689"
     inkscape:cy="13.195331"
     inkscape:window-x="42"
     inkscape:window-y="44"
     inkscape:window-maximized="0"
     inkscape:current-layer="svg6"
     inkscape:snap-global="true"
     inkscape:snap-bbox="true"
     inkscape:bbox-paths="true"
     inkscape:bbox-nodes="true"
     inkscape:snap-bbox-edge-midpoints="true"
     inkscape:snap-bbox-midpoints="true"
     inkscape:object-paths="true"
     inkscape:snap-intersection-paths="true"
     inkscape:snap-smooth-nodes="true"
     inkscape:snap-midpoints="true"
     inkscape:snap-object-midpoints="true"
     inkscape:snap-center="false">
    <inkscape:grid
       type="xygrid"
       id="grid4526" />
  </sodipodi:namedview>
  <path
     id="path857"
     style="fill:#000000;stroke:none;stroke-width:1px;stroke-linecap:butt;stroke-linejoin:miter;stroke-opacity:1"
     d="M 12 3 L 4 9 L 4 14.5 A 2.25 2.25 0 0 1 6.25 16.75 A 2.25 2.25 0 0 1 4 19 L 4 21 L 10 21 L 10 14 L 14 14 L 14 21 L 16.089844 21 A 1.5 1.5 0 0 1 16 20.5 A 1.5 1.5 0 0 1 17.5 19 A 1.5 1.5 0 0 1 19 20.5 A 1.5 1.5 0 0 1 18.910156 21 L 20 21 L 20 15.117188 A 2.25 2.25 0 0 1 18.75 15.5 A 2.25 2.25 0 0 1 16.5 13.25 A 2.25 2.25 0 0 1 18.75 11 A 2.25 2.25 0 0 1 20 11.378906 L 20 9 L 12 3 z M 9.5 6.5 A 1.5 1.5 0 0 1 11 8 A 1.5 1.5 0 0 1 9.5 9.5 A 1.5 1.5 0 0 1 8 8 A 1.5 1.5 0 0 1 9.5 6.5 z " />
</svg>
