<?xml version="1.0" encoding="UTF-8" standalone="no"?>
<svg
   xmlns:dc="http://purl.org/dc/elements/1.1/"
   xmlns:cc="http://creativecommons.org/ns#"
   xmlns:rdf="http://www.w3.org/1999/02/22-rdf-syntax-ns#"
   xmlns:svg="http://www.w3.org/2000/svg"
   xmlns="http://www.w3.org/2000/svg"
   xmlns:sodipodi="http://sodipodi.sourceforge.net/DTD/sodipodi-0.dtd"
   xmlns:inkscape="http://www.inkscape.org/namespaces/inkscape"
   height="24"
   viewBox="0 0 24 24"
   width="24"
   version="1.1"
   id="svg6"
   sodipodi:docname="wiring.svg"
   inkscape:version="0.92.5 (2060ec1f9f, 2020-04-08)">
  <metadata
     id="metadata12">
    <rdf:RDF>
      <cc:Work
         rdf:about="">
        <dc:format>image/svg+xml</dc:format>
        <dc:type
           rdf:resource="http://purl.org/dc/dcmitype/StillImage" />
        <dc:title></dc:title>
      </cc:Work>
    </rdf:RDF>
  </metadata>
  <defs
     id="defs10" />
  <sodipodi:namedview
     pagecolor="#ffffff"
     bordercolor="#666666"
     borderopacity="1"
     objecttolerance="10"
     gridtolerance="10"
     guidetolerance="10"
     inkscape:pageopacity="0"
     inkscape:pageshadow="2"
     inkscape:window-width="1709"
     inkscape:window-height="1083"
     id="namedview8"
     showgrid="true"
     inkscape:pagecheckerboard="false"
     showguides="true"
     inkscape:zoom="27.812867"
     inkscape:cx="9.7299346"
     inkscape:cy="13.2063"
     inkscape:window-x="42"
     inkscape:window-y="133"
     inkscape:window-maximized="0"
     inkscape:current-layer="svg6">
    <inkscape:grid
       type="xygrid"
       id="grid4526" />
  </sodipodi:namedview>
  <path
     style="color:#000000;overflow:visible;opacity:1;vector-effect:none;fill:#000000;fill-opacity:1;stroke:none;stroke-width:0.1;stroke-linecap:butt;stroke-linejoin:round;stroke-miterlimit:4;stroke-dasharray:none;stroke-dashoffset:0;stroke-opacity:1"
     d="M 13 3 C 11.892 3 11 3.892 11 5 L 11 8 C 11 8.1781945 11.030888 8.3475098 11.074219 8.5117188 L 8.5117188 11.074219 C 8.3475098 11.030888 8.1781945 11 8 11 L 5 11 C 3.892 11 3 11.892 3 13 L 3 16 C 3 17.108 3.892 18 5 18 L 8 18 C 8.9795684 18 9.7881011 17.302268 9.9628906 16.375 L 14 17.720703 L 14 19 C 14 20.108 14.892 21 16 21 L 19 21 C 20.108 21 21 20.108 21 19 L 21 16 C 21 14.892 20.108 14 19 14 L 16 14 C 15.020432 14 14.211899 14.697732 14.037109 15.625 L 10 14.279297 L 10 13 C 10 12.821805 9.9691121 12.65249 9.9257812 12.488281 L 12.488281 9.9257812 C 12.65249 9.9691121 12.821805 10 13 10 L 16 10 C 17.108 10 18 9.108 18 8 L 18 5 C 18 3.892 17.108 3 16 3 L 13 3 z M 13 5 L 16 5 L 16 8 L 13 8 L 13 5 z M 5 13 L 8 13 L 8 16 L 5 16 L 5 13 z M 16 16 L 19 16 L 19 19 L 16 19 L 16 16 z "
     id="rect905" />
</svg>
