<?xml version="1.0" encoding="UTF-8" standalone="no"?>
<svg
   width="1em"
   height="1em"
   preserveAspectRatio="xMidYMid meet"
   viewBox="0 0 24 24"
   version="1.1"
   id="svg4"
   sodipodi:docname="IEAppDebuggable.svg"
   inkscape:version="1.2.1 (9c6d41e410, 2022-07-14)"
   xmlns:inkscape="http://www.inkscape.org/namespaces/inkscape"
   xmlns:sodipodi="http://sodipodi.sourceforge.net/DTD/sodipodi-0.dtd"
   xmlns="http://www.w3.org/2000/svg"
   xmlns:svg="http://www.w3.org/2000/svg">
  <defs
     id="defs8" />
  <sodipodi:namedview
     id="namedview6"
     pagecolor="#505050"
     bordercolor="#eeeeee"
     borderopacity="1"
     inkscape:showpageshadow="0"
     inkscape:pageopacity="0"
     inkscape:pagecheckerboard="0"
     inkscape:deskcolor="#505050"
     showgrid="true"
     inkscape:zoom="28.195883"
     inkscape:cx="8.3345501"
     inkscape:cy="12.271295"
     inkscape:window-width="1920"
     inkscape:window-height="1137"
     inkscape:window-x="-8"
     inkscape:window-y="-8"
     inkscape:window-maximized="1"
     inkscape:current-layer="svg4">
    <inkscape:grid
       type="xygrid"
       id="grid114" />
  </sodipodi:namedview>
  <path
     id="path2"
     d="M 6.5996094 1.4394531 L 5.7792969 2.2695312 L 7.8808594 4.3691406 C 6.6633429 5.2577878 5.7421093 6.5249643 5.296875 8 L 2 8 L 2 10 L 5 10 L 5 11 L 5 12 L 2 12 L 2 14 L 5 14 L 5 16 L 2 16 L 2 18 L 5.2910156 18 C 6.1502944 20.893378 8.8252395 23 12 23 C 15.174761 23 17.849706 20.893378 18.708984 18 L 22 18 L 22 16 L 19 16 L 19 14 L 22 14 L 22 12 L 19 12 L 19 11 L 19 10 L 22 10 L 22 8 L 18.703125 8 C 18.25789 6.5249643 17.336656 5.2577878 16.119141 4.3691406 L 18.220703 2.2695312 L 17.400391 1.4394531 L 15.099609 3.75 C 14.159613 3.280002 13.119996 3 12 3 C 10.880004 3 9.8401526 3.280002 8.9101562 3.75 L 6.5996094 1.4394531 z M 12 5 A 5 5 0 0 1 17 10 L 7 10 A 5 5 0 0 1 12 5 z M 10 7 A 1 1 0 0 0 9 8 A 1 1 0 0 0 10 9 A 1 1 0 0 0 11 8 A 1 1 0 0 0 10 7 z M 14 7 A 1 1 0 0 0 13 8 A 1 1 0 0 0 14 9 A 1 1 0 0 0 15 8 A 1 1 0 0 0 14 7 z M 7 11 L 17 11 L 17 16 A 5 5 0 0 1 12 21 A 5 5 0 0 1 7 16 L 7 11 z M 12 13 L 9 16 L 12 19 L 15 16 L 12 13 z " />
</svg>
